<svg width="182" height="44" viewBox="0 0 182 44" fill="none" xmlns="http://www.w3.org/2000/svg">
<path d="M70.8036 18.9536C70.8036 16.9064 68.8185 14.7347 65.3769 14.7347C61.5105 14.7347 57.2697 17.5652 56.6133 23.2212C55.9508 28.9395 59.511 31.4663 63.0881 31.4663C66.664 31.4663 68.5465 30.0729 70.4583 28.2051C68.8076 26.1261 66.6786 27.0936 66.276 27.2962C65.8307 27.5194 65.2463 27.8281 64.0592 27.8281C62.6733 27.8281 61.2677 27.201 61.2677 24.6279C70.1276 23.7788 70.8036 21.002 70.8036 18.9536ZM66.4127 19.2964C66.3553 19.9272 66.0966 21.0191 61.6131 21.6194C62.5586 18.2618 64.3618 18.0129 65.195 18.0129C65.9759 18.0129 66.4736 18.618 66.4127 19.2964ZM51.4062 19.8417C51.4062 19.8417 49.5006 25.8175 49.3529 26.3189C49.3017 25.8175 47.9072 15.0837 47.9072 15.0837C44.6618 15.0837 42.9257 17.3895 42.0107 19.8393C42.0107 19.8393 39.6926 25.8321 39.5048 26.3336C39.4938 25.8638 39.1485 19.9016 39.1485 19.9016C38.9521 16.9051 36.2168 15.0909 34 15.0909L36.6658 31.3528C40.0709 31.3418 41.8936 29.0396 42.855 26.5947C42.855 26.5947 44.8937 21.307 44.9779 21.0667C44.9986 21.2961 46.4444 31.3528 46.4444 31.3528C49.8519 31.3528 51.6905 29.197 52.68 26.8399L57.4613 15.0909C54.094 15.0909 52.3212 17.3907 51.4062 19.8417ZM83.3186 14.7127C81.2239 14.7127 79.6097 15.851 78.2507 17.5334L78.2531 17.5212L79.461 7.75C76.6719 7.75 74.3929 10.1779 73.9598 13.7794L71.8382 31.2259C73.4474 31.2259 75.1518 30.7586 76.0716 29.5764C76.8952 30.6341 78.1189 31.4772 79.9306 31.4772C84.6339 31.4772 87.867 26.0103 87.867 20.8776C87.867 16.1939 85.5879 14.7127 83.3186 14.7127ZM82.8868 23.0944C82.3988 25.9639 80.8042 27.8988 79.2596 27.8988C77.7029 27.8988 77.0453 27.2108 77.0453 27.2108C77.3356 24.7024 77.5284 23.1639 78.0957 21.839C78.6618 20.514 80.0002 18.3997 81.4007 18.3997C82.7623 18.3997 83.3748 20.2261 82.8868 23.0944ZM99.6574 15.0922H96.3645L96.3803 14.9201C96.6048 12.7704 97.1197 11.6419 98.7863 11.4687C99.9245 11.3516 100.439 10.7598 100.559 10.1205C100.653 9.61907 100.971 7.84637 100.971 7.84637C94.3661 7.80857 92.2957 10.6598 91.7674 14.9934L91.7552 15.0909L91.6905 15.0934C90.6181 15.0934 89.4408 16.3074 89.2346 17.8494L89.1627 18.4167H91.3587L89.5152 33.6782L88.9565 36.4208L89.1833 36.4281C92.2664 36.311 94.2502 33.8795 94.6882 30.3389L96.1278 18.4167H97.16C98.1702 18.4167 99.3572 17.4042 99.5769 15.7119L99.6574 15.0922ZM116.745 14.8092C112.951 14.8092 109.375 17.6018 108.275 21.9951C107.177 26.3873 108.847 31.5736 114.423 31.5736C120.002 31.5736 123.206 26.1676 123.206 21.6792C123.206 17.1882 120.171 14.8092 116.745 14.8092ZM118.284 22.9638C118.087 24.9561 117.209 27.966 114.808 27.966C112.397 27.966 112.739 24.434 112.973 22.7577C113.223 20.9605 114.233 18.4167 116.382 18.4167C118.323 18.4167 118.506 20.714 118.284 22.9638ZM141.944 19.8417C141.944 19.8417 140.038 25.8175 139.892 26.3189C139.839 25.8175 138.445 15.0837 138.445 15.0837C135.2 15.0837 133.464 17.3895 132.548 19.8393C132.548 19.8393 130.232 25.8321 130.044 26.3336C130.032 25.8638 129.687 19.9016 129.687 19.9016C129.491 16.9051 126.754 15.0909 124.538 15.0909L127.203 31.3528C130.608 31.3418 132.432 29.0396 133.394 26.5947C133.394 26.5947 135.432 21.307 135.516 21.0667C135.537 21.2961 136.982 31.3528 136.982 31.3528C140.39 31.3528 142.228 29.197 143.217 26.8399L148 15.0909C144.632 15.0909 142.859 17.3907 141.944 19.8417ZM102.756 7.84637L99.9917 30.1437L99.9843 30.1401L99.4231 32.8974L99.6488 32.9046C102.626 32.868 104.738 30.256 105.135 26.9618L106.732 14.1637C107.216 10.2657 104.893 7.84637 102.756 7.84637Z" fill="black"/>
</svg>
