<svg width="1440" height="82" viewBox="0 0 1440 82" fill="none" xmlns="http://www.w3.org/2000/svg">
<rect width="1440" height="82" fill="#FF4262"/>
<path d="M122.804 37.9536C122.804 35.9064 120.819 33.7347 117.377 33.7347C113.511 33.7347 109.27 36.5652 108.613 42.2212C107.951 47.9395 111.511 50.4663 115.088 50.4663C118.664 50.4663 120.547 49.0729 122.458 47.2051C120.808 45.1261 118.679 46.0936 118.276 46.2962C117.831 46.5194 117.246 46.8281 116.059 46.8281C114.673 46.8281 113.268 46.201 113.268 43.6279C122.128 42.7788 122.804 40.002 122.804 37.9536ZM118.413 38.2964C118.355 38.9272 118.097 40.0191 113.613 40.6194C114.559 37.2618 116.362 37.0129 117.195 37.0129C117.976 37.0129 118.474 37.618 118.413 38.2964ZM103.406 38.8417C103.406 38.8417 101.501 44.8175 101.353 45.3189C101.302 44.8175 99.9072 34.0837 99.9072 34.0837C96.6618 34.0837 94.9257 36.3895 94.0107 38.8393C94.0107 38.8393 91.6926 44.8321 91.5048 45.3336C91.4938 44.8638 91.1485 38.9016 91.1485 38.9016C90.9521 35.9051 88.2168 34.0909 86 34.0909L88.6658 50.3528C92.0709 50.3418 93.8936 48.0396 94.855 45.5947C94.855 45.5947 96.8937 40.307 96.9779 40.0667C96.9986 40.2961 98.4444 50.3528 98.4444 50.3528C101.852 50.3528 103.69 48.197 104.68 45.8399L109.461 34.0909C106.094 34.0909 104.321 36.3907 103.406 38.8417ZM135.319 33.7127C133.224 33.7127 131.61 34.851 130.251 36.5334L130.253 36.5212L131.461 26.75C128.672 26.75 126.393 29.1779 125.96 32.7794L123.838 50.2259C125.447 50.2259 127.152 49.7586 128.072 48.5764C128.895 49.6341 130.119 50.4772 131.931 50.4772C136.634 50.4772 139.867 45.0103 139.867 39.8776C139.867 35.1939 137.588 33.7127 135.319 33.7127ZM134.887 42.0944C134.399 44.9639 132.804 46.8988 131.26 46.8988C129.703 46.8988 129.045 46.2108 129.045 46.2108C129.336 43.7024 129.528 42.1639 130.096 40.839C130.662 39.514 132 37.3997 133.401 37.3997C134.762 37.3997 135.375 39.2261 134.887 42.0944ZM151.657 34.0922H148.365L148.38 33.9201C148.605 31.7704 149.12 30.6419 150.786 30.4687C151.925 30.3516 152.439 29.7598 152.559 29.1205C152.653 28.6191 152.971 26.8464 152.971 26.8464C146.366 26.8086 144.296 29.6598 143.767 33.9934L143.755 34.0909L143.691 34.0934C142.618 34.0934 141.441 35.3074 141.235 36.8494L141.163 37.4167H143.359L141.515 52.6782L140.956 55.4208L141.183 55.4281C144.266 55.311 146.25 52.8795 146.688 49.3389L148.128 37.4167H149.16C150.17 37.4167 151.357 36.4042 151.577 34.7119L151.657 34.0922ZM168.745 33.8092C164.951 33.8092 161.375 36.6018 160.275 40.9951C159.177 45.3873 160.847 50.5736 166.423 50.5736C172.002 50.5736 175.206 45.1676 175.206 40.6792C175.206 36.1882 172.171 33.8092 168.745 33.8092ZM170.284 41.9638C170.087 43.9561 169.209 46.966 166.808 46.966C164.397 46.966 164.739 43.434 164.973 41.7577C165.223 39.9605 166.233 37.4167 168.382 37.4167C170.323 37.4167 170.506 39.714 170.284 41.9638ZM193.944 38.8417C193.944 38.8417 192.038 44.8175 191.892 45.3189C191.839 44.8175 190.445 34.0837 190.445 34.0837C187.2 34.0837 185.464 36.3895 184.548 38.8393C184.548 38.8393 182.232 44.8321 182.044 45.3336C182.032 44.8638 181.687 38.9016 181.687 38.9016C181.491 35.9051 178.754 34.0909 176.538 34.0909L179.203 50.3528C182.608 50.3418 184.432 48.0396 185.394 45.5947C185.394 45.5947 187.432 40.307 187.516 40.0667C187.537 40.2961 188.982 50.3528 188.982 50.3528C192.39 50.3528 194.228 48.197 195.217 45.8399L200 34.0909C196.632 34.0909 194.859 36.3907 193.944 38.8417ZM154.756 26.8464L151.992 49.1437L151.984 49.1401L151.423 51.8974L151.649 51.9046C154.626 51.868 156.738 49.256 157.135 45.9618L158.732 33.1637C159.216 29.2657 156.893 26.8464 154.756 26.8464Z" fill="black"/>
<path d="M315.615 50.0475H319.774V42.9184H321.582L325.999 50.0475H330.441L325.559 42.1952C327.729 41.5495 329.356 40.0771 329.356 37.2875V37.1842C329.356 33.3614 326.593 31.5791 322.227 31.5791H315.615V50.0475ZM319.774 40.0771V34.782H322.124C324.139 34.782 325.275 35.4278 325.275 37.3133V37.4167C325.275 39.199 324.216 40.0771 322.124 40.0771H319.774Z" fill="black"/>
<path d="M337.579 50.3316C341.273 50.3316 343.598 48.7044 344.037 45.7855H340.498C340.266 46.9221 339.413 47.6712 337.683 47.6712C335.642 47.6712 334.428 46.3797 334.325 44.1325H344.063V43.0993C344.063 38.269 340.963 36.2285 337.476 36.2285C333.55 36.2285 330.528 38.9923 330.528 43.2542V43.4608C330.528 47.7745 333.498 50.3316 337.579 50.3316ZM334.376 41.8336C334.66 39.9222 335.797 38.8115 337.476 38.8115C339.258 38.8115 340.291 39.793 340.421 41.8336H334.376Z" fill="black"/>
<path d="M345.843 50.0475H349.562V30.4167H345.843V50.0475Z" fill="black"/>
<path d="M356.698 50.3316C358.92 50.3316 360.288 49.2984 360.986 47.9295V50.0475H364.705V36.5385H360.986V44.4682C360.986 46.4572 359.746 47.4387 358.171 47.4387C356.569 47.4387 355.82 46.5604 355.82 44.7265V36.5385H352.101V45.2431C352.101 48.7818 354.064 50.3316 356.698 50.3316Z" fill="black"/>
<path d="M367.245 50.0475H370.99V42.0661C370.99 40.2322 372.152 39.3022 373.599 39.3022C374.917 39.3022 375.717 40.0771 375.717 41.8078V50.0475H379.437V42.0661C379.437 40.2322 380.599 39.3022 382.045 39.3022C383.388 39.3022 384.164 40.0771 384.164 41.8078V50.0475H387.883V41.3945C387.883 37.8041 385.946 36.2285 383.44 36.2285C381.735 36.2285 379.979 36.9517 378.894 38.579C378.249 36.9776 376.905 36.2285 375.123 36.2285C373.108 36.2285 371.662 37.3392 370.99 38.6048V36.5384H367.245V50.0475Z" fill="black"/>
<path d="M396.532 50.3316C400.226 50.3316 402.551 48.7044 402.989 45.7855H399.451C399.218 46.9221 398.366 47.6712 396.635 47.6712C394.594 47.6712 393.381 46.3797 393.277 44.1325H403.015V43.0993C403.015 38.269 399.915 36.2285 396.428 36.2285C392.502 36.2285 389.48 38.9923 389.48 43.2542V43.4608C389.48 47.7745 392.451 50.3316 396.532 50.3316ZM393.329 41.8336C393.613 39.9222 394.75 38.8115 396.428 38.8115C398.211 38.8115 399.244 39.793 399.374 41.8336H393.329Z" fill="black"/>
<path fill-rule="evenodd" clip-rule="evenodd" d="M301.303 32.684L301.052 32.2356C300.728 31.6932 300.271 31.2425 299.725 30.9261L287.689 23.9843C287.143 23.6682 286.525 23.5011 285.895 23.5H285.375C284.745 23.5011 284.126 23.6682 283.581 23.9843L271.545 30.9441C271.001 31.2584 270.55 31.7099 270.235 32.2535L269.984 32.7019C269.668 33.2469 269.501 33.8656 269.5 34.4956V48.3972C269.501 49.0273 269.668 49.6459 269.984 50.1909L270.235 50.6393C270.558 51.1766 271.008 51.6263 271.545 51.9488L283.599 58.8905C284.141 59.2132 284.762 59.3808 285.393 59.3748H285.895C286.525 59.3737 287.143 59.2066 287.689 58.8905L299.725 51.9309C300.273 51.6236 300.727 51.1704 301.034 50.6214L301.303 50.173C301.615 49.6264 301.782 49.0087 301.787 48.3792V34.4777C301.786 33.8477 301.619 33.229 301.303 32.684ZM285.375 27.0874H285.895L296.406 33.1503L285.644 39.3566L274.881 33.1503L285.375 27.0874ZM287.437 54.8906L297.931 48.8277L298.2 48.3793V36.2536L287.437 42.4779V54.8906Z" fill="black"/>
<path d="M507.804 37.9536C507.804 35.9064 505.819 33.7347 502.377 33.7347C498.511 33.7347 494.27 36.5652 493.613 42.2212C492.951 47.9395 496.511 50.4663 500.088 50.4663C503.664 50.4663 505.547 49.0729 507.458 47.2051C505.808 45.1261 503.679 46.0936 503.276 46.2962C502.831 46.5194 502.246 46.8281 501.059 46.8281C499.673 46.8281 498.268 46.201 498.268 43.6279C507.128 42.7788 507.804 40.002 507.804 37.9536ZM503.413 38.2964C503.355 38.9272 503.097 40.0191 498.613 40.6194C499.559 37.2618 501.362 37.0129 502.195 37.0129C502.976 37.0129 503.474 37.618 503.413 38.2964ZM488.406 38.8417C488.406 38.8417 486.501 44.8175 486.353 45.3189C486.302 44.8175 484.907 34.0837 484.907 34.0837C481.662 34.0837 479.926 36.3895 479.011 38.8393C479.011 38.8393 476.693 44.8321 476.505 45.3336C476.494 44.8638 476.149 38.9016 476.149 38.9016C475.952 35.9051 473.217 34.0909 471 34.0909L473.666 50.3528C477.071 50.3418 478.894 48.0396 479.855 45.5947C479.855 45.5947 481.894 40.307 481.978 40.0667C481.999 40.2961 483.444 50.3528 483.444 50.3528C486.852 50.3528 488.69 48.197 489.68 45.8399L494.461 34.0909C491.094 34.0909 489.321 36.3907 488.406 38.8417ZM520.319 33.7127C518.224 33.7127 516.61 34.851 515.251 36.5334L515.253 36.5212L516.461 26.75C513.672 26.75 511.393 29.1779 510.96 32.7794L508.838 50.2259C510.447 50.2259 512.152 49.7586 513.072 48.5764C513.895 49.6341 515.119 50.4772 516.931 50.4772C521.634 50.4772 524.867 45.0103 524.867 39.8776C524.867 35.1939 522.588 33.7127 520.319 33.7127ZM519.887 42.0944C519.399 44.9639 517.804 46.8988 516.26 46.8988C514.703 46.8988 514.045 46.2108 514.045 46.2108C514.336 43.7024 514.528 42.1639 515.096 40.839C515.662 39.514 517 37.3997 518.401 37.3997C519.762 37.3997 520.375 39.2261 519.887 42.0944ZM536.657 34.0922H533.365L533.38 33.9201C533.605 31.7704 534.12 30.6419 535.786 30.4687C536.925 30.3516 537.439 29.7598 537.559 29.1205C537.653 28.6191 537.971 26.8464 537.971 26.8464C531.366 26.8086 529.296 29.6598 528.767 33.9934L528.755 34.0909L528.691 34.0934C527.618 34.0934 526.441 35.3074 526.235 36.8494L526.163 37.4167H528.359L526.515 52.6782L525.956 55.4208L526.183 55.4281C529.266 55.311 531.25 52.8795 531.688 49.3389L533.128 37.4167H534.16C535.17 37.4167 536.357 36.4042 536.577 34.7119L536.657 34.0922ZM553.745 33.8092C549.951 33.8092 546.375 36.6018 545.275 40.9951C544.177 45.3873 545.847 50.5736 551.423 50.5736C557.002 50.5736 560.206 45.1676 560.206 40.6792C560.206 36.1882 557.171 33.8092 553.745 33.8092ZM555.284 41.9638C555.087 43.9561 554.209 46.966 551.808 46.966C549.397 46.966 549.739 43.434 549.973 41.7577C550.223 39.9605 551.233 37.4167 553.382 37.4167C555.323 37.4167 555.506 39.714 555.284 41.9638ZM578.944 38.8417C578.944 38.8417 577.038 44.8175 576.892 45.3189C576.839 44.8175 575.445 34.0837 575.445 34.0837C572.2 34.0837 570.464 36.3895 569.548 38.8393C569.548 38.8393 567.232 44.8321 567.044 45.3336C567.032 44.8638 566.687 38.9016 566.687 38.9016C566.491 35.9051 563.754 34.0909 561.538 34.0909L564.203 50.3528C567.608 50.3418 569.432 48.0396 570.394 45.5947C570.394 45.5947 572.432 40.307 572.516 40.0667C572.537 40.2961 573.982 50.3528 573.982 50.3528C577.39 50.3528 579.228 48.197 580.217 45.8399L585 34.0909C581.632 34.0909 579.859 36.3907 578.944 38.8417ZM539.756 26.8464L536.992 49.1437L536.984 49.1401L536.423 51.8974L536.649 51.9046C539.626 51.868 541.738 49.256 542.135 45.9618L543.732 33.1637C544.216 29.2657 541.893 26.8464 539.756 26.8464Z" fill="black"/>
<path d="M699.615 50.0475H703.774V42.9184H705.582L709.999 50.0475H714.441L709.559 42.1952C711.729 41.5495 713.356 40.0771 713.356 37.2875V37.1842C713.356 33.3614 710.593 31.5791 706.227 31.5791H699.615V50.0475ZM703.774 40.0771V34.782H706.124C708.139 34.782 709.275 35.4278 709.275 37.3133V37.4167C709.275 39.199 708.216 40.0771 706.124 40.0771H703.774Z" fill="black"/>
<path d="M721.579 50.3316C725.273 50.3316 727.598 48.7044 728.037 45.7855H724.498C724.266 46.9221 723.413 47.6712 721.683 47.6712C719.642 47.6712 718.428 46.3797 718.325 44.1325H728.063V43.0993C728.063 38.269 724.963 36.2285 721.476 36.2285C717.55 36.2285 714.528 38.9923 714.528 43.2542V43.4608C714.528 47.7745 717.498 50.3316 721.579 50.3316ZM718.376 41.8336C718.66 39.9222 719.797 38.8115 721.476 38.8115C723.258 38.8115 724.291 39.793 724.421 41.8336H718.376Z" fill="black"/>
<path d="M729.843 50.0475H733.562V30.4167H729.843V50.0475Z" fill="black"/>
<path d="M740.698 50.3316C742.92 50.3316 744.288 49.2984 744.986 47.9295V50.0475H748.705V36.5385H744.986V44.4682C744.986 46.4572 743.746 47.4387 742.171 47.4387C740.569 47.4387 739.82 46.5604 739.82 44.7265V36.5385H736.101V45.2431C736.101 48.7818 738.064 50.3316 740.698 50.3316Z" fill="black"/>
<path d="M751.245 50.0475H754.99V42.0661C754.99 40.2322 756.152 39.3022 757.599 39.3022C758.917 39.3022 759.717 40.0771 759.717 41.8078V50.0475H763.437V42.0661C763.437 40.2322 764.599 39.3022 766.045 39.3022C767.388 39.3022 768.164 40.0771 768.164 41.8078V50.0475H771.883V41.3945C771.883 37.8041 769.946 36.2285 767.44 36.2285C765.735 36.2285 763.979 36.9517 762.894 38.579C762.249 36.9776 760.905 36.2285 759.123 36.2285C757.108 36.2285 755.662 37.3392 754.99 38.6048V36.5384H751.245V50.0475Z" fill="black"/>
<path d="M780.532 50.3316C784.226 50.3316 786.551 48.7044 786.989 45.7855H783.451C783.218 46.9221 782.366 47.6712 780.635 47.6712C778.594 47.6712 777.381 46.3797 777.278 44.1325H787.015V43.0993C787.015 38.269 783.915 36.2285 780.428 36.2285C776.502 36.2285 773.48 38.9923 773.48 43.2542V43.4608C773.48 47.7745 776.451 50.3316 780.532 50.3316ZM777.329 41.8336C777.613 39.9222 778.75 38.8115 780.428 38.8115C782.211 38.8115 783.244 39.793 783.374 41.8336H777.329Z" fill="black"/>
<path fill-rule="evenodd" clip-rule="evenodd" d="M685.303 32.684L685.052 32.2356C684.728 31.6932 684.271 31.2425 683.725 30.9261L671.689 23.9843C671.143 23.6682 670.525 23.5011 669.895 23.5H669.375C668.745 23.5011 668.126 23.6682 667.581 23.9843L655.545 30.9441C655.001 31.2584 654.55 31.7099 654.235 32.2535L653.984 32.7019C653.668 33.2469 653.501 33.8656 653.5 34.4956V48.3972C653.501 49.0273 653.668 49.6459 653.984 50.1909L654.235 50.6393C654.558 51.1766 655.008 51.6263 655.545 51.9488L667.599 58.8905C668.141 59.2132 668.762 59.3808 669.393 59.3748H669.895C670.525 59.3737 671.143 59.2066 671.689 58.8905L683.725 51.9309C684.273 51.6236 684.727 51.1704 685.034 50.6214L685.303 50.173C685.615 49.6264 685.782 49.0087 685.787 48.3792V34.4777C685.786 33.8477 685.619 33.229 685.303 32.684ZM669.375 27.0874H669.895L680.406 33.1503L669.644 39.3566L658.881 33.1503L669.375 27.0874ZM671.437 54.8906L681.931 48.8277L682.2 48.3793V36.2536L671.437 42.4779V54.8906Z" fill="black"/>
<path d="M891.804 37.9536C891.804 35.9064 889.819 33.7347 886.377 33.7347C882.511 33.7347 878.27 36.5652 877.613 42.2212C876.951 47.9395 880.511 50.4663 884.088 50.4663C887.664 50.4663 889.547 49.0729 891.458 47.2051C889.808 45.1261 887.679 46.0936 887.276 46.2962C886.831 46.5194 886.246 46.8281 885.059 46.8281C883.673 46.8281 882.268 46.201 882.268 43.6279C891.128 42.7788 891.804 40.002 891.804 37.9536ZM887.413 38.2964C887.355 38.9272 887.097 40.0191 882.613 40.6194C883.559 37.2618 885.362 37.0129 886.195 37.0129C886.976 37.0129 887.474 37.618 887.413 38.2964ZM872.406 38.8417C872.406 38.8417 870.501 44.8175 870.353 45.3189C870.302 44.8175 868.907 34.0837 868.907 34.0837C865.662 34.0837 863.926 36.3895 863.011 38.8393C863.011 38.8393 860.693 44.8321 860.505 45.3336C860.494 44.8638 860.149 38.9016 860.149 38.9016C859.952 35.9051 857.217 34.0909 855 34.0909L857.666 50.3528C861.071 50.3418 862.894 48.0396 863.855 45.5947C863.855 45.5947 865.894 40.307 865.978 40.0667C865.999 40.2961 867.444 50.3528 867.444 50.3528C870.852 50.3528 872.69 48.197 873.68 45.8399L878.461 34.0909C875.094 34.0909 873.321 36.3907 872.406 38.8417ZM904.319 33.7127C902.224 33.7127 900.61 34.851 899.251 36.5334L899.253 36.5212L900.461 26.75C897.672 26.75 895.393 29.1779 894.96 32.7794L892.838 50.2259C894.447 50.2259 896.152 49.7586 897.072 48.5764C897.895 49.6341 899.119 50.4772 900.931 50.4772C905.634 50.4772 908.867 45.0103 908.867 39.8776C908.867 35.1939 906.588 33.7127 904.319 33.7127ZM903.887 42.0944C903.399 44.9639 901.804 46.8988 900.26 46.8988C898.703 46.8988 898.045 46.2108 898.045 46.2108C898.336 43.7024 898.528 42.1639 899.096 40.839C899.662 39.514 901 37.3997 902.401 37.3997C903.762 37.3997 904.375 39.2261 903.887 42.0944ZM920.657 34.0922H917.365L917.38 33.9201C917.605 31.7704 918.12 30.6419 919.786 30.4687C920.925 30.3516 921.439 29.7598 921.559 29.1205C921.653 28.6191 921.971 26.8464 921.971 26.8464C915.366 26.8086 913.296 29.6598 912.767 33.9934L912.755 34.0909L912.691 34.0934C911.618 34.0934 910.441 35.3074 910.235 36.8494L910.163 37.4167H912.359L910.515 52.6782L909.956 55.4208L910.183 55.4281C913.266 55.311 915.25 52.8795 915.688 49.3389L917.128 37.4167H918.16C919.17 37.4167 920.357 36.4042 920.577 34.7119L920.657 34.0922ZM937.745 33.8092C933.951 33.8092 930.375 36.6018 929.275 40.9951C928.177 45.3873 929.847 50.5736 935.423 50.5736C941.002 50.5736 944.206 45.1676 944.206 40.6792C944.206 36.1882 941.171 33.8092 937.745 33.8092ZM939.284 41.9638C939.087 43.9561 938.209 46.966 935.808 46.966C933.397 46.966 933.739 43.434 933.973 41.7577C934.223 39.9605 935.233 37.4167 937.382 37.4167C939.323 37.4167 939.506 39.714 939.284 41.9638ZM962.944 38.8417C962.944 38.8417 961.038 44.8175 960.892 45.3189C960.839 44.8175 959.445 34.0837 959.445 34.0837C956.2 34.0837 954.464 36.3895 953.548 38.8393C953.548 38.8393 951.232 44.8321 951.044 45.3336C951.032 44.8638 950.687 38.9016 950.687 38.9016C950.491 35.9051 947.754 34.0909 945.538 34.0909L948.203 50.3528C951.608 50.3418 953.432 48.0396 954.394 45.5947C954.394 45.5947 956.432 40.307 956.516 40.0667C956.537 40.2961 957.982 50.3528 957.982 50.3528C961.39 50.3528 963.228 48.197 964.217 45.8399L969 34.0909C965.632 34.0909 963.859 36.3907 962.944 38.8417ZM923.756 26.8464L920.992 49.1437L920.984 49.1401L920.423 51.8974L920.649 51.9046C923.626 51.868 925.738 49.256 926.135 45.9618L927.732 33.1637C928.216 29.2657 925.893 26.8464 923.756 26.8464Z" fill="black"/>
<path d="M1084.61 50.0475H1088.77V42.9184H1090.58L1095 50.0475H1099.44L1094.56 42.1952C1096.73 41.5495 1098.36 40.0771 1098.36 37.2875V37.1842C1098.36 33.3614 1095.59 31.5791 1091.23 31.5791H1084.61V50.0475ZM1088.77 40.0771V34.782H1091.12C1093.14 34.782 1094.28 35.4278 1094.28 37.3133V37.4167C1094.28 39.199 1093.22 40.0771 1091.12 40.0771H1088.77Z" fill="black"/>
<path d="M1106.58 50.3316C1110.27 50.3316 1112.6 48.7044 1113.04 45.7855H1109.5C1109.27 46.9221 1108.41 47.6712 1106.68 47.6712C1104.64 47.6712 1103.43 46.3797 1103.32 44.1325H1113.06V43.0993C1113.06 38.269 1109.96 36.2285 1106.48 36.2285C1102.55 36.2285 1099.53 38.9923 1099.53 43.2542V43.4608C1099.53 47.7745 1102.5 50.3316 1106.58 50.3316ZM1103.38 41.8336C1103.66 39.9222 1104.8 38.8115 1106.48 38.8115C1108.26 38.8115 1109.29 39.793 1109.42 41.8336H1103.38Z" fill="black"/>
<path d="M1114.84 50.0475H1118.56V30.4167H1114.84V50.0475Z" fill="black"/>
<path d="M1125.7 50.3316C1127.92 50.3316 1129.29 49.2984 1129.99 47.9295V50.0475H1133.71V36.5385H1129.99V44.4682C1129.99 46.4572 1128.75 47.4387 1127.17 47.4387C1125.57 47.4387 1124.82 46.5604 1124.82 44.7265V36.5385H1121.1V45.2431C1121.1 48.7818 1123.06 50.3316 1125.7 50.3316Z" fill="black"/>
<path d="M1136.24 50.0475H1139.99V42.0661C1139.99 40.2322 1141.15 39.3022 1142.6 39.3022C1143.92 39.3022 1144.72 40.0771 1144.72 41.8078V50.0475H1148.44V42.0661C1148.44 40.2322 1149.6 39.3022 1151.05 39.3022C1152.39 39.3022 1153.16 40.0771 1153.16 41.8078V50.0475H1156.88V41.3945C1156.88 37.8041 1154.95 36.2285 1152.44 36.2285C1150.74 36.2285 1148.98 36.9517 1147.89 38.579C1147.25 36.9776 1145.91 36.2285 1144.12 36.2285C1142.11 36.2285 1140.66 37.3392 1139.99 38.6048V36.5384H1136.24V50.0475Z" fill="black"/>
<path d="M1165.53 50.3316C1169.23 50.3316 1171.55 48.7044 1171.99 45.7855H1168.45C1168.22 46.9221 1167.37 47.6712 1165.63 47.6712C1163.59 47.6712 1162.38 46.3797 1162.28 44.1325H1172.02V43.0993C1172.02 38.269 1168.92 36.2285 1165.43 36.2285C1161.5 36.2285 1158.48 38.9923 1158.48 43.2542V43.4608C1158.48 47.7745 1161.45 50.3316 1165.53 50.3316ZM1162.33 41.8336C1162.61 39.9222 1163.75 38.8115 1165.43 38.8115C1167.21 38.8115 1168.24 39.793 1168.37 41.8336H1162.33Z" fill="black"/>
<path fill-rule="evenodd" clip-rule="evenodd" d="M1070.3 32.684L1070.05 32.2356C1069.73 31.6932 1069.27 31.2425 1068.72 30.9261L1056.69 23.9843C1056.14 23.6682 1055.52 23.5011 1054.89 23.5H1054.37C1053.74 23.5011 1053.13 23.6682 1052.58 23.9843L1040.54 30.9441C1040 31.2584 1039.55 31.7099 1039.24 32.2535L1038.98 32.7019C1038.67 33.2469 1038.5 33.8656 1038.5 34.4956V48.3972C1038.5 49.0273 1038.67 49.6459 1038.98 50.1909L1039.24 50.6393C1039.56 51.1766 1040.01 51.6263 1040.54 51.9488L1052.6 58.8905C1053.14 59.2132 1053.76 59.3808 1054.39 59.3748H1054.89C1055.52 59.3737 1056.14 59.2066 1056.69 58.8905L1068.72 51.9309C1069.27 51.6236 1069.73 51.1704 1070.03 50.6214L1070.3 50.173C1070.62 49.6264 1070.78 49.0087 1070.79 48.3792V34.4777C1070.79 33.8477 1070.62 33.229 1070.3 32.684ZM1054.37 27.0874H1054.89L1065.41 33.1503L1054.64 39.3566L1043.88 33.1503L1054.37 27.0874ZM1056.44 54.8906L1066.93 48.8277L1067.2 48.3793V36.2536L1056.44 42.4779V54.8906Z" fill="black"/>
<path d="M1276.8 37.9536C1276.8 35.9064 1274.82 33.7347 1271.38 33.7347C1267.51 33.7347 1263.27 36.5652 1262.61 42.2212C1261.95 47.9395 1265.51 50.4663 1269.09 50.4663C1272.66 50.4663 1274.55 49.0729 1276.46 47.2051C1274.81 45.1261 1272.68 46.0936 1272.28 46.2962C1271.83 46.5194 1271.25 46.8281 1270.06 46.8281C1268.67 46.8281 1267.27 46.201 1267.27 43.6279C1276.13 42.7788 1276.8 40.002 1276.8 37.9536ZM1272.41 38.2964C1272.36 38.9272 1272.1 40.0191 1267.61 40.6194C1268.56 37.2618 1270.36 37.0129 1271.2 37.0129C1271.98 37.0129 1272.47 37.618 1272.41 38.2964ZM1257.41 38.8417C1257.41 38.8417 1255.5 44.8175 1255.35 45.3189C1255.3 44.8175 1253.91 34.0837 1253.91 34.0837C1250.66 34.0837 1248.93 36.3895 1248.01 38.8393C1248.01 38.8393 1245.69 44.8321 1245.5 45.3336C1245.49 44.8638 1245.15 38.9016 1245.15 38.9016C1244.95 35.9051 1242.22 34.0909 1240 34.0909L1242.67 50.3528C1246.07 50.3418 1247.89 48.0396 1248.86 45.5947C1248.86 45.5947 1250.89 40.307 1250.98 40.0667C1251 40.2961 1252.44 50.3528 1252.44 50.3528C1255.85 50.3528 1257.69 48.197 1258.68 45.8399L1263.46 34.0909C1260.09 34.0909 1258.32 36.3907 1257.41 38.8417ZM1289.32 33.7127C1287.22 33.7127 1285.61 34.851 1284.25 36.5334L1284.25 36.5212L1285.46 26.75C1282.67 26.75 1280.39 29.1779 1279.96 32.7794L1277.84 50.2259C1279.45 50.2259 1281.15 49.7586 1282.07 48.5764C1282.9 49.6341 1284.12 50.4772 1285.93 50.4772C1290.63 50.4772 1293.87 45.0103 1293.87 39.8776C1293.87 35.1939 1291.59 33.7127 1289.32 33.7127ZM1288.89 42.0944C1288.4 44.9639 1286.8 46.8988 1285.26 46.8988C1283.7 46.8988 1283.05 46.2108 1283.05 46.2108C1283.34 43.7024 1283.53 42.1639 1284.1 40.839C1284.66 39.514 1286 37.3997 1287.4 37.3997C1288.76 37.3997 1289.37 39.2261 1288.89 42.0944ZM1305.66 34.0922H1302.36L1302.38 33.9201C1302.6 31.7704 1303.12 30.6419 1304.79 30.4687C1305.92 30.3516 1306.44 29.7598 1306.56 29.1205C1306.65 28.6191 1306.97 26.8464 1306.97 26.8464C1300.37 26.8086 1298.3 29.6598 1297.77 33.9934L1297.76 34.0909L1297.69 34.0934C1296.62 34.0934 1295.44 35.3074 1295.23 36.8494L1295.16 37.4167H1297.36L1295.52 52.6782L1294.96 55.4208L1295.18 55.4281C1298.27 55.311 1300.25 52.8795 1300.69 49.3389L1302.13 37.4167H1303.16C1304.17 37.4167 1305.36 36.4042 1305.58 34.7119L1305.66 34.0922ZM1322.75 33.8092C1318.95 33.8092 1315.38 36.6018 1314.28 40.9951C1313.18 45.3873 1314.85 50.5736 1320.42 50.5736C1326 50.5736 1329.21 45.1676 1329.21 40.6792C1329.21 36.1882 1326.17 33.8092 1322.75 33.8092ZM1324.28 41.9638C1324.09 43.9561 1323.21 46.966 1320.81 46.966C1318.4 46.966 1318.74 43.434 1318.97 41.7577C1319.22 39.9605 1320.23 37.4167 1322.38 37.4167C1324.32 37.4167 1324.51 39.714 1324.28 41.9638ZM1347.94 38.8417C1347.94 38.8417 1346.04 44.8175 1345.89 45.3189C1345.84 44.8175 1344.44 34.0837 1344.44 34.0837C1341.2 34.0837 1339.46 36.3895 1338.55 38.8393C1338.55 38.8393 1336.23 44.8321 1336.04 45.3336C1336.03 44.8638 1335.69 38.9016 1335.69 38.9016C1335.49 35.9051 1332.75 34.0909 1330.54 34.0909L1333.2 50.3528C1336.61 50.3418 1338.43 48.0396 1339.39 45.5947C1339.39 45.5947 1341.43 40.307 1341.52 40.0667C1341.54 40.2961 1342.98 50.3528 1342.98 50.3528C1346.39 50.3528 1348.23 48.197 1349.22 45.8399L1354 34.0909C1350.63 34.0909 1348.86 36.3907 1347.94 38.8417ZM1308.76 26.8464L1305.99 49.1437L1305.98 49.1401L1305.42 51.8974L1305.65 51.9046C1308.63 51.868 1310.74 49.256 1311.14 45.9618L1312.73 33.1637C1313.22 29.2657 1310.89 26.8464 1308.76 26.8464Z" fill="black"/>
</svg>
