<svg width="21" height="20" viewBox="0 0 21 20" fill="none" xmlns="http://www.w3.org/2000/svg">
<g clip-path="url(#clip0_1_167)">
<path fill-rule="evenodd" clip-rule="evenodd" d="M10.1445 6.26172C10.1445 3.95846 12.0111 2.09143 14.3133 2.09143C15.6648 2.09143 16.744 2.73072 17.4672 3.65847C18.2439 3.49956 18.9743 3.21218 19.6351 2.82011C19.3745 3.63464 18.8232 4.31947 18.1044 4.75284C18.1051 4.75424 18.1056 4.75566 18.1063 4.75706C18.8112 4.67148 19.4819 4.48403 20.1064 4.20728L20.1049 4.20954C19.6556 4.88244 19.0908 5.47648 18.4415 5.96046C18.4764 6.19563 18.4941 6.43236 18.4941 6.66772C18.4941 11.5828 14.7497 17.2995 7.86163 17.2995C5.75208 17.2995 3.78725 16.6813 2.1334 15.6203C1.82351 15.4215 1.73348 15.0091 1.93231 14.6992C1.94987 14.6717 1.96911 14.6461 1.98979 14.6221C2.10776 14.4269 2.33251 14.3079 2.57387 14.3363C3.79421 14.4801 5.01424 14.3313 6.08959 13.8616C5.02301 13.3912 4.19505 12.4797 3.83605 11.3597C3.77145 11.1581 3.8178 10.9375 3.95801 10.779C3.96288 10.7735 3.96783 10.7681 3.97285 10.7628C3.11855 10.0109 2.57964 8.90944 2.57964 7.68191V7.63679C2.57964 7.42419 2.69215 7.22746 2.8754 7.11966C2.93561 7.08423 3.00049 7.06015 3.06709 7.04744C2.77399 6.48206 2.60821 5.83979 2.60821 5.15944C2.60821 4.53554 2.61179 3.74923 3.05109 3.04108C3.14957 2.88234 3.31011 2.78554 3.48187 2.7626C3.73451 2.68316 4.02116 2.75959 4.19875 2.97736C5.65381 4.76168 7.75421 5.99444 10.1449 6.31948L10.1445 6.26172ZM7.86163 15.9661C6.81183 15.9661 5.80375 15.7913 4.86331 15.4697C6.00683 15.2717 7.10409 14.8212 8.04957 14.0803C8.24948 13.9236 8.32909 13.658 8.24835 13.4172C8.1676 13.1765 7.944 13.0126 7.69007 13.0081C6.75291 12.9916 5.92283 12.5296 5.40391 11.8246C5.65771 11.8041 5.90571 11.7605 6.14593 11.6956C6.41471 11.6229 6.59817 11.3749 6.58899 11.0966C6.5798 10.8183 6.38039 10.5829 6.1074 10.5281C5.06925 10.3197 4.23177 9.55686 3.91559 8.56232C4.1834 8.627 4.46136 8.66547 4.74643 8.6748C5.01417 8.68356 5.25528 8.51378 5.33727 8.25874C5.41924 8.0037 5.32221 7.72522 5.09951 7.57632C4.32031 7.0554 3.80821 6.16619 3.80821 5.15944C3.80821 4.93618 3.81136 4.73691 3.82473 4.55626C5.63487 6.39884 8.11164 7.58575 10.8678 7.72451C11.0763 7.73502 11.2777 7.64724 11.4119 7.48738C11.5462 7.3275 11.5978 7.11398 11.5513 6.91046C11.5034 6.70023 11.4778 6.48379 11.4778 6.26172C11.4778 4.69447 12.7479 3.42476 14.3133 3.42476C15.9591 3.42476 17.1608 4.94944 17.1608 6.66772C17.1608 11.0095 13.8603 15.9661 7.86163 15.9661Z" fill="white"/>
</g>
<defs>
<clipPath id="clip0_1_167">
<rect width="20" height="20" fill="white" transform="translate(0.5)"/>
</clipPath>
</defs>
</svg>
