<svg width="20" height="20" viewBox="0 0 20 20" fill="none" xmlns="http://www.w3.org/2000/svg">
<path fill-rule="evenodd" clip-rule="evenodd" d="M6.76602 2.4344C6.71023 2.42563 6.65353 2.42428 6.59738 2.4304C5.47578 2.55256 3.76898 3.15765 2.76154 3.70405C2.69475 3.74028 2.63495 3.78811 2.58493 3.84531C2.1667 4.32349 1.78729 5.10443 1.48942 5.84243C1.18327 6.60096 0.92973 7.40037 0.785255 7.978C0.314982 9.8582 0.056675 12.1163 0.0233321 14.2566C0.0216629 14.3638 0.0469234 14.4697 0.0967965 14.5645C0.498244 15.3279 1.36021 16.0359 2.22413 16.5535C3.09777 17.077 4.11643 17.4909 4.93847 17.5703C5.13781 17.5895 5.33465 17.5143 5.47043 17.3673C5.67627 17.1441 6.02574 16.6234 6.28994 16.219C6.40986 16.0355 6.5221 15.8603 6.61127 15.7201C7.49365 15.8807 8.60058 15.9734 10 15.9734C11.3979 15.9734 12.504 15.8809 13.3859 15.7206C13.4749 15.8609 13.5871 16.0358 13.7068 16.219C13.9711 16.6234 14.3205 17.1441 14.5263 17.3673C14.6621 17.5143 14.8589 17.5895 15.0583 17.5703C15.8803 17.4909 16.8989 17.077 17.7727 16.5535C18.6365 16.0359 19.4985 15.3279 19.9 14.5645C19.9499 14.4697 19.9751 14.3638 19.9735 14.2566C19.9401 12.1163 19.6817 9.8582 19.2115 7.978C19.0671 7.40037 18.8135 6.60096 18.5073 5.84243C18.2095 5.10443 17.83 4.32349 17.4119 3.84531C17.3619 3.78811 17.302 3.74028 17.2352 3.70405C16.2277 3.15765 14.5209 2.55256 13.3993 2.4304C13.3432 2.42428 13.2865 2.42563 13.2307 2.4344C12.9557 2.47761 12.7188 2.61939 12.5441 2.75135C12.3597 2.89067 12.1884 3.06219 12.0405 3.23571C11.8262 3.4872 11.6192 3.79312 11.4857 4.08295C11.0298 4.04663 10.5352 4.02661 10 4.02661C9.4636 4.02661 8.96791 4.04672 8.51116 4.0832C8.37771 3.79329 8.17057 3.48727 7.95622 3.23571C7.80835 3.06219 7.63705 2.89067 7.45263 2.75135C7.27795 2.61939 7.04107 2.47761 6.76602 2.4344ZM14.6908 15.3842C14.7193 15.4283 14.7487 15.4734 14.7784 15.5189C14.9559 15.7906 15.1316 16.0513 15.2677 16.2411C15.7967 16.1221 16.4693 15.8423 17.1148 15.4555C17.8393 15.0214 18.4131 14.5223 18.6903 14.0985C18.6469 12.0901 18.3991 10.0049 17.9697 8.28859C17.84 7.77007 17.6051 7.02689 17.3204 6.32151C17.0524 5.65763 16.7671 5.09544 16.5173 4.77221C15.6501 4.32287 14.2839 3.84771 13.3939 3.71977C13.3744 3.73113 13.3484 3.74797 13.3157 3.77268C13.2248 3.84128 13.1202 3.94216 13.0148 4.06588C12.9595 4.13084 12.9089 4.19608 12.8636 4.25927C13.2707 4.33369 13.6337 4.42275 13.9549 4.52159C14.8665 4.80208 15.5237 5.18713 15.8453 5.61595C16.0575 5.89872 16.0001 6.29987 15.7173 6.51195C15.4345 6.72403 15.0335 6.66672 14.8213 6.38395C14.7429 6.27943 14.4001 5.99781 13.5784 5.74497C12.7858 5.50108 11.6181 5.30661 10 5.30661C8.38193 5.30661 7.21423 5.50108 6.42155 5.74497C5.59985 5.99781 5.25706 6.27943 5.17867 6.38395C4.96659 6.66672 4.56545 6.72403 4.28267 6.51195C3.9999 6.29987 3.94259 5.89872 4.15467 5.61595C4.47629 5.18713 5.13349 4.80208 6.04511 4.52159C6.36558 4.42297 6.72762 4.33411 7.13355 4.25979C7.08815 4.19645 7.03745 4.13103 6.98194 4.06588C6.87651 3.94216 6.77191 3.84128 6.68109 3.77268C6.64838 3.74797 6.62233 3.73113 6.6029 3.71977C5.71286 3.84771 4.34666 4.32287 3.47939 4.77221C3.22969 5.09544 2.94434 5.65763 2.67639 6.32151C2.39169 7.02689 2.1567 7.77007 2.02701 8.28859C1.59773 10.0049 1.34982 12.0901 1.30649 14.0985C1.58363 14.5223 2.15743 15.0214 2.88198 15.4555C3.52743 15.8423 4.20005 16.1221 4.72907 16.2411C4.86514 16.0513 5.04087 15.7906 5.21841 15.5189C5.24835 15.473 5.27785 15.4277 5.30662 15.3833C4.26029 15.0121 3.69815 14.501 3.33419 13.9551C3.13813 13.661 3.21761 13.2637 3.5117 13.0676C3.80581 12.8715 4.20315 12.951 4.39922 13.2451C4.7477 13.7678 5.65807 14.6934 10 14.6934C14.342 14.6934 15.2523 13.7679 15.6008 13.2451C15.7969 12.951 16.1943 12.8715 16.4884 13.0676C16.7825 13.2637 16.862 13.661 16.6659 13.9551C16.3016 14.5015 15.7388 15.013 14.6908 15.3842ZM5.44066 9.34956C5.7655 8.99973 6.20635 8.80211 6.66677 8.79992C7.12718 8.80211 7.56805 8.99973 7.89289 9.34956C8.21773 9.6994 8.4001 10.1729 8.4001 10.6666C8.4001 11.1602 8.21773 11.6338 7.89289 11.9836C7.56805 12.3334 7.12718 12.5311 6.66677 12.5333C6.20635 12.5311 5.7655 12.3334 5.44066 11.9836C5.11581 11.6338 4.93343 11.1602 4.93343 10.6666C4.93343 10.1729 5.11581 9.6994 5.44066 9.34956ZM13.3318 8.79992C12.8714 8.80211 12.4305 8.99973 12.1057 9.34956C11.7808 9.6994 11.5985 10.1729 11.5985 10.6666C11.5985 11.1602 11.7808 11.6338 12.1057 11.9836C12.4305 12.3334 12.8714 12.5311 13.3318 12.5333C13.7923 12.5311 14.2331 12.3334 14.5579 11.9836C14.8828 11.6338 15.0652 11.1602 15.0652 10.6666C15.0652 10.1729 14.8828 9.6994 14.5579 9.34956C14.2331 8.99973 13.7923 8.80211 13.3318 8.79992Z" fill="white"/>
</svg>
